<?xml version="1.0" encoding="iso-8859-1"?>
<!-- Generator: Adobe Illustrator 16.0.0, SVG Export Plug-In . SVG Version: 6.00 Build 0)  -->
<!DOCTYPE svg PUBLIC "-//W3C//DTD SVG 1.1//EN" "http://www.w3.org/Graphics/SVG/1.1/DTD/svg11.dtd">
<svg version="1.1" id="Capa_1" xmlns="http://www.w3.org/2000/svg" xmlns:xlink="http://www.w3.org/1999/xlink" x="0px" y="0px"
	 width="465.704px" height="465.704px" viewBox="0 0 465.704 465.704" style="enable-background:new 0 0 465.704 465.704;"
	 xml:space="preserve">
<g>
	<g>
		<path d="M436.842,195.243l-24.737,13.16c-18.483,5.342-15.821-18.8-15.821-18.8c43.129-9.382,62.638-31.458,62.638-31.458
			c6.196-23.845-49.233-63.79-81.382-79.146c-9.286-4.485-8.841-9.139-19.952-9.008c-11.147,0.148-12.562,10.944-16.249,13.42
			c-30.788,24.998-89.663,84.897-89.663,84.897h-30.734C214.09,48.694,117.334,49.979,117.334,49.979
			C8.036,57.928,0.032,188.895,0.032,188.895s-2.848,72.854,44.859,77.377c40.987,5.563,53.049-77.377,53.049-77.377
			c-2.83,45.828,4.56,126.686,4.56,126.686c7.13,80.06,96.718,95.32,98.207,95.786c22.262,6.831,52.959,5.416,93.127-2.718
			c49.119-8.188,41.174-24.18,25.631-24.18c-8.188-1.006-11.986-1.451-11.986-1.451c-28.628-8.879,17.832-15.691,24.773-16.343
			c6.942-0.652,7.335-11.188,7.335-11.188c7.146-103.345,67.849-115.388,116.374-139.381
			C477.868,207.825,459.031,186.939,436.842,195.243z M389.937,127.375c-3.929,0-7.111-3.183-7.111-7.147
			c0-3.909,3.186-7.073,7.111-7.073c3.925,0,7.109,3.164,7.109,7.073C397.046,124.192,393.864,127.375,389.937,127.375z"/>
	</g>
</g>
<g>
</g>
<g>
</g>
<g>
</g>
<g>
</g>
<g>
</g>
<g>
</g>
<g>
</g>
<g>
</g>
<g>
</g>
<g>
</g>
<g>
</g>
<g>
</g>
<g>
</g>
<g>
</g>
<g>
</g>
</svg>
